<svg id="SvgjsSvg1015" width="288" height="288" xmlns="http://www.w3.org/2000/svg" version="1.1" xmlns:xlink="http://www.w3.org/1999/xlink" xmlns:svgjs="http://svgjs.com/svgjs"><defs id="SvgjsDefs1016"></defs><g id="SvgjsG1017" transform="matrix(1,0,0,1,0,0)"><svg xmlns="http://www.w3.org/2000/svg" viewBox="0 0 24 24" width="288" height="288"><g data-name="Layer 2" fill="#e96379" class="color000 svgShape" data-darkreader-inline-fill="" style="--darkreader-inline-fill:#8a1427;"><g data-name="trash-2" fill="#e96379" class="color000 svgShape" data-darkreader-inline-fill="" style="--darkreader-inline-fill:#8a1427;"><rect width="24" height="24" opacity="0" fill="#e96379" class="color000 svgShape" data-darkreader-inline-fill="" style="--darkreader-inline-fill:#8a1427;"></rect><path d="M21 6h-5V4.33A2.42 2.42 0 0 0 13.5 2h-3A2.42 2.42 0 0 0 8 4.33V6H3a1 1 0 0 0 0 2h1v11a3 3 0 0 0 3 3h10a3 3 0 0 0 3-3V8h1a1 1 0 0 0 0-2zM10 4.33c0-.16.21-.33.5-.33h3c.29 0 .5.17.5.33V6h-4zM18 19a1 1 0 0 1-1 1H7a1 1 0 0 1-1-1V8h12z" fill="#e96379" class="color000 svgShape" data-darkreader-inline-fill="" style="--darkreader-inline-fill:#8a1427;"></path><path d="M9 17a1 1 0 0 0 1-1v-4a1 1 0 0 0-2 0v4a1 1 0 0 0 1 1zM15 17a1 1 0 0 0 1-1v-4a1 1 0 0 0-2 0v4a1 1 0 0 0 1 1z" fill="#e96379" class="color000 svgShape" data-darkreader-inline-fill="" style="--darkreader-inline-fill:#8a1427;"></path></g></g></svg></g></svg>